# xmcd
#
# Track frame offsets:
#	150
#	12050
#	27323
#	43818
#	60160
#	80100
#	101798
#	120375
#	138928
#	152800
#	164963
#	184753
#
# Disc length: 2718 seconds
#
# Revision: 0
# Processed by: cddbd v1.5.2PL0 Copyright (c) Steve Scherf et al.
# Submitted via: VUPlayer 2.48
#
DISCID=9c0a9c0c
DTITLE=יוני רכטר - בגובה העיניים
DYEAR=1985
DGENRE=Israeli
TTITLE0=נעלי הוגה
TTITLE1=ראיתי שמש
TTITLE2=יש מטוס
TTITLE3=כבודה של האשה (בבית פנימה)
TTITLE4=דואט (עם מזי כהן)
TTITLE5=אבן מן הלב
TTITLE6=חייל חוזר
TTITLE7=נסיעה
TTITLE8=לא יכול להוציאך מראשי
TTITLE9=עוגן הרם
TTITLE10=שיר מן הסוף
TTITLE11=שיר נבואי קוסמי עליז
EXTD=YEAR: 1985 ID3G: 17\nיוני רכטר ועלי מוהר
EXTT0=
EXTT1=
EXTT2=
EXTT3=
EXTT4=
EXTT5=
EXTT6=
EXTT7=
EXTT8=
EXTT9=
EXTT10=
EXTT11=
PLAYORDER=
